<svg width="60" height="60" viewBox="0 0 60 60" fill="none" xmlns="http://www.w3.org/2000/svg">
<g filter="url(#filter0_b_167_603)">
<rect width="60" height="60" rx="30" fill="#EB5757"/>
</g>
<path d="M34.6663 23.35V23C34.6663 20.4217 32.578 18.3334 29.9997 18.3334C27.4213 18.3334 25.333 20.4217 25.333 23V28.8334" stroke="white" stroke-width="2" stroke-linecap="round" stroke-linejoin="round"/>
<path d="M26.5464 32.555C27.3981 33.5 28.6347 34.0834 29.9997 34.0834C32.5781 34.0834 34.6664 31.995 34.6664 29.4167V28.8334" stroke="white" stroke-width="2" stroke-linecap="round" stroke-linejoin="round"/>
<path d="M23.9102 35.775C25.5085 37.2567 27.6435 38.1667 30.0002 38.1667C34.9235 38.1667 38.9252 34.165 38.9252 29.2417V27.2584" stroke="white" stroke-width="2" stroke-linecap="round" stroke-linejoin="round"/>
<path d="M21.0747 27.2584V29.2417C21.0747 30.4784 21.3197 31.645 21.7747 32.7184" stroke="white" stroke-width="2" stroke-linecap="round" stroke-linejoin="round"/>
<path d="M39.4154 19.3133L20.5854 38.155" stroke="white" stroke-width="2" stroke-linecap="round" stroke-linejoin="round"/>
<path d="M28.834 19.5V23" stroke="white" stroke-width="2" stroke-linecap="round" stroke-linejoin="round"/>
<path d="M30.0005 38.1666V41.6666" stroke="white" stroke-width="2" stroke-linecap="round" stroke-linejoin="round"/>
<defs>
<filter id="filter0_b_167_603" x="-10.5" y="-10.5" width="81" height="81" filterUnits="userSpaceOnUse" color-interpolation-filters="sRGB">
<feFlood flood-opacity="0" result="BackgroundImageFix"/>
<feGaussianBlur in="BackgroundImageFix" stdDeviation="5.25"/>
<feComposite in2="SourceAlpha" operator="in" result="effect1_backgroundBlur_167_603"/>
<feBlend mode="normal" in="SourceGraphic" in2="effect1_backgroundBlur_167_603" result="shape"/>
</filter>
</defs>
</svg>
