<svg width="60" height="60" viewBox="0 0 60 60" fill="none" xmlns="http://www.w3.org/2000/svg">
<g filter="url(#filter0_b_167_636)">
<rect width="60" height="60" rx="30" fill="#EB5757"/>
</g>
<path d="M34.63 24.58C34.63 24.58 34.66 23.63 34.63 23.32C34.46 21.28 33.13 20.58 30.52 20.58H24.21C21.05 20.58 20 21.63 20 24.79V33.21C20 34.47 20.38 35.74 21.37 36.55L22 37" stroke="white" stroke-width="2" stroke-linecap="round" stroke-linejoin="round"/>
<path d="M34.7398 27.95V33.21C34.7398 36.37 33.6898 37.42 30.5298 37.42H25.2598" stroke="white" stroke-width="2" stroke-linecap="round" stroke-linejoin="round"/>
<path d="M40.0002 23.74V32.81C40.0002 34.48 38.8802 35.06 37.5202 34.1L34.7402 32.15" stroke="white" stroke-width="2" stroke-linecap="round" stroke-linejoin="round"/>
<path d="M40.02 19.19L20.02 39.19" stroke="white" stroke-width="2" stroke-linecap="round" stroke-linejoin="round"/>
<defs>
<filter id="filter0_b_167_636" x="-10.5" y="-10.5" width="81" height="81" filterUnits="userSpaceOnUse" color-interpolation-filters="sRGB">
<feFlood flood-opacity="0" result="BackgroundImageFix"/>
<feGaussianBlur in="BackgroundImageFix" stdDeviation="5.25"/>
<feComposite in2="SourceAlpha" operator="in" result="effect1_backgroundBlur_167_636"/>
<feBlend mode="normal" in="SourceGraphic" in2="effect1_backgroundBlur_167_636" result="shape"/>
</filter>
</defs>
</svg>
